<?xml version="1.0" standalone="no"?>
<svg xmlns:xlink="http://www.w3.org/1999/xlink" id="wave" style="transform:rotate(180deg); transition: 0.3s" viewBox="0 0 1440 100" version="1.1" xmlns="http://www.w3.org/2000/svg"><defs><linearGradient id="sw-gradient-0" x1="0" x2="0" y1="1" y2="0"><stop stop-color="rgba(255, 249, 234, 1)" offset="0%"/><stop stop-color="rgba(255, 249, 234, 1)" offset="100%"/></linearGradient></defs><path style="transform:translate(0, 0px); opacity:1" fill="url(#sw-gradient-0)" d="M0,0L40,6.7C80,13,160,27,240,38.3C320,50,400,60,480,60C560,60,640,50,720,41.7C800,33,880,27,960,26.7C1040,27,1120,33,1200,41.7C1280,50,1360,60,1440,61.7C1520,63,1600,57,1680,51.7C1760,47,1840,43,1920,46.7C2000,50,2080,60,2160,55C2240,50,2320,30,2400,26.7C2480,23,2560,37,2640,50C2720,63,2800,77,2880,76.7C2960,77,3040,63,3120,63.3C3200,63,3280,77,3360,73.3C3440,70,3520,50,3600,45C3680,40,3760,50,3840,53.3C3920,57,4000,53,4080,55C4160,57,4240,63,4320,65C4400,67,4480,63,4560,56.7C4640,50,4720,40,4800,41.7C4880,43,4960,57,5040,53.3C5120,50,5200,30,5280,33.3C5360,37,5440,63,5520,65C5600,67,5680,43,5720,31.7L5760,20L5760,100L5720,100C5680,100,5600,100,5520,100C5440,100,5360,100,5280,100C5200,100,5120,100,5040,100C4960,100,4880,100,4800,100C4720,100,4640,100,4560,100C4480,100,4400,100,4320,100C4240,100,4160,100,4080,100C4000,100,3920,100,3840,100C3760,100,3680,100,3600,100C3520,100,3440,100,3360,100C3280,100,3200,100,3120,100C3040,100,2960,100,2880,100C2800,100,2720,100,2640,100C2560,100,2480,100,2400,100C2320,100,2240,100,2160,100C2080,100,2000,100,1920,100C1840,100,1760,100,1680,100C1600,100,1520,100,1440,100C1360,100,1280,100,1200,100C1120,100,1040,100,960,100C880,100,800,100,720,100C640,100,560,100,480,100C400,100,320,100,240,100C160,100,80,100,40,100L0,100Z"/></svg>